<?xml version="1.0" standalone="no"?>
<!DOCTYPE svg PUBLIC "-//W3C//DTD SVG 20010904//EN"
 "http://www.w3.org/TR/2001/REC-SVG-20010904/DTD/svg10.dtd">
<svg version="1.0" xmlns="http://www.w3.org/2000/svg"
 width="720.000000pt" height="720.000000pt" viewBox="0 0 720.000000 720.000000"
 preserveAspectRatio="xMidYMid meet">
<metadata>
Created by potrace 1.14, written by Peter Selinger 2001-2017
</metadata>
<g transform="translate(0.000000,720.000000) scale(0.100000,-0.100000)"
fill="#000000" stroke="none">
<path d="M3088 7168 c-21 -44 -112 -105 -184 -123 -32 -8 -136 -54 -230 -101
-144 -73 -183 -98 -240 -152 -38 -36 -76 -82 -85 -102 -9 -21 -33 -55 -51 -76
-19 -22 -51 -64 -71 -94 -20 -30 -49 -73 -65 -95 -65 -91 -102 -164 -116 -225
-8 -36 -22 -90 -31 -120 -35 -119 -46 -206 -34 -255 8 -30 9 -81 5 -148 -13
-176 -9 -216 24 -253 24 -28 37 -69 39 -124 1 -8 3 -109 6 -225 3 -115 10
-227 17 -247 6 -20 8 -53 5 -73 -3 -21 0 -49 9 -70 8 -20 14 -67 14 -110 0
-69 -8 -111 -45 -250 -7 -27 -16 -108 -20 -180 -4 -73 -17 -178 -30 -240 -50
-230 -117 -478 -151 -555 -30 -68 -34 -88 -29 -125 8 -52 -7 -104 -38 -132
-12 -11 -71 -42 -132 -68 -92 -40 -423 -200 -461 -223 -118 -72 -378 -276
-404 -317 -50 -77 -129 -262 -139 -326 -6 -35 -24 -90 -41 -121 -17 -34 -34
-88 -41 -130 -6 -39 -17 -90 -25 -112 -17 -48 -59 -248 -68 -326 -17 -135 -86
-447 -129 -575 l-40 -120 -5 -388 -5 -387 3295 0 3295 0 14 28 c11 21 15 109
17 432 3 401 -2 523 -33 730 -8 52 -21 147 -30 210 -30 215 -64 445 -85 565
-11 66 -27 160 -36 209 -48 285 -131 439 -319 593 -92 75 -269 164 -370 187
-157 35 -192 44 -230 60 -82 36 -242 87 -300 97 -83 14 -123 40 -206 133 -93
104 -113 148 -104 231 3 34 13 74 21 90 8 15 14 49 14 75 0 27 5 61 10 75 6
15 11 80 12 146 0 65 5 119 10 119 4 0 8 7 8 16 0 8 -4 12 -10 9 -5 -3 -10 3
-10 14 0 32 -30 140 -61 217 -41 102 -53 167 -44 238 4 34 8 151 8 261 0 169
-3 216 -22 305 -12 58 -27 114 -33 125 -6 11 -14 58 -18 105 -5 47 -11 111
-14 142 -7 69 -59 296 -80 357 -9 24 -16 56 -16 72 0 15 -5 40 -10 54 -6 15
-15 59 -20 98 -11 73 -45 216 -61 252 -52 121 -112 240 -144 285 -83 119 -112
159 -191 256 -180 220 -340 331 -551 381 -35 8 -63 19 -63 24 0 5 -179 9 -418
9 l-418 0 -16 -32z"/>
</g>
</svg>
